<mxfile host="app.diagrams.net" agent="Mozilla/5.0 (Macintosh; Intel Mac OS X 10_15_7) AppleWebKit/537.36 (KHTML, like Gecko) Chrome/140.0.0.0 Safari/537.36" version="28.2.3">
  <diagram name="第 1 页" id="NnYnvmyBaRAYeifzK2Se">
    <mxGraphModel dx="1793" dy="1827" grid="1" gridSize="10" guides="1" tooltips="1" connect="1" arrows="1" fold="1" page="1" pageScale="1" pageWidth="827" pageHeight="1169" math="0" shadow="0">
      <root>
        <mxCell id="0" />
        <mxCell id="1" parent="0" />
        <mxCell id="24taLyYYHlg751Q2959I-1" style="edgeStyle=orthogonalEdgeStyle;rounded=0;orthogonalLoop=1;jettySize=auto;html=1;entryX=0.5;entryY=1;entryDx=0;entryDy=0;" edge="1" parent="1" source="24taLyYYHlg751Q2959I-4" target="24taLyYYHlg751Q2959I-90">
          <mxGeometry relative="1" as="geometry" />
        </mxCell>
        <mxCell id="24taLyYYHlg751Q2959I-2" style="edgeStyle=orthogonalEdgeStyle;rounded=0;orthogonalLoop=1;jettySize=auto;html=1;exitX=0.5;exitY=0;exitDx=0;exitDy=0;entryX=0.5;entryY=1;entryDx=0;entryDy=0;" edge="1" parent="1" source="24taLyYYHlg751Q2959I-4" target="24taLyYYHlg751Q2959I-92">
          <mxGeometry relative="1" as="geometry" />
        </mxCell>
        <mxCell id="24taLyYYHlg751Q2959I-3" style="edgeStyle=orthogonalEdgeStyle;rounded=0;orthogonalLoop=1;jettySize=auto;html=1;exitX=0.5;exitY=0;exitDx=0;exitDy=0;entryX=0.5;entryY=1;entryDx=0;entryDy=0;" edge="1" parent="1" source="24taLyYYHlg751Q2959I-4" target="24taLyYYHlg751Q2959I-100">
          <mxGeometry relative="1" as="geometry" />
        </mxCell>
        <mxCell id="24taLyYYHlg751Q2959I-4" value="&lt;div&gt;&lt;br&gt;&lt;/div&gt;&lt;div&gt;&lt;br&gt;&lt;/div&gt;&lt;div&gt;&lt;br&gt;&lt;/div&gt;&lt;div&gt;&lt;br&gt;&lt;/div&gt;&lt;div&gt;&lt;br&gt;&lt;/div&gt;&lt;div&gt;&lt;br&gt;&lt;/div&gt;&lt;div&gt;&lt;br&gt;&lt;/div&gt;&lt;div&gt;&lt;br&gt;&lt;/div&gt;&lt;div&gt;&lt;br&gt;&lt;/div&gt;&lt;div&gt;&lt;br&gt;&lt;/div&gt;&lt;div&gt;&lt;br&gt;&lt;/div&gt;&lt;div&gt;&lt;br&gt;&lt;/div&gt;&lt;div&gt;&lt;br&gt;&lt;/div&gt;&lt;div&gt;&lt;br&gt;&lt;/div&gt;&lt;div&gt;&lt;br&gt;&lt;/div&gt;&lt;div&gt;marm block&lt;/div&gt;" style="rounded=0;whiteSpace=wrap;html=1;" vertex="1" parent="1">
          <mxGeometry x="1220" y="47.5" width="350" height="272.5" as="geometry" />
        </mxCell>
        <mxCell id="24taLyYYHlg751Q2959I-5" style="edgeStyle=orthogonalEdgeStyle;rounded=0;orthogonalLoop=1;jettySize=auto;html=1;exitX=0.5;exitY=0;exitDx=0;exitDy=0;entryX=0.5;entryY=1;entryDx=0;entryDy=0;" edge="1" parent="1" source="24taLyYYHlg751Q2959I-6" target="24taLyYYHlg751Q2959I-10">
          <mxGeometry relative="1" as="geometry" />
        </mxCell>
        <mxCell id="24taLyYYHlg751Q2959I-6" value="user features" style="rounded=0;whiteSpace=wrap;html=1;" vertex="1" parent="1">
          <mxGeometry x="100" y="370" width="120" height="40" as="geometry" />
        </mxCell>
        <mxCell id="24taLyYYHlg751Q2959I-7" style="edgeStyle=orthogonalEdgeStyle;rounded=0;orthogonalLoop=1;jettySize=auto;html=1;exitX=0.5;exitY=0;exitDx=0;exitDy=0;" edge="1" parent="1" source="24taLyYYHlg751Q2959I-8">
          <mxGeometry relative="1" as="geometry">
            <mxPoint x="220" y="340" as="targetPoint" />
          </mxGeometry>
        </mxCell>
        <mxCell id="24taLyYYHlg751Q2959I-8" value="user bias feature" style="rounded=0;whiteSpace=wrap;html=1;" vertex="1" parent="1">
          <mxGeometry x="240" y="370" width="120" height="40" as="geometry" />
        </mxCell>
        <mxCell id="24taLyYYHlg751Q2959I-9" value="" style="edgeStyle=orthogonalEdgeStyle;rounded=0;orthogonalLoop=1;jettySize=auto;html=1;" edge="1" parent="1" source="24taLyYYHlg751Q2959I-10" target="24taLyYYHlg751Q2959I-12">
          <mxGeometry relative="1" as="geometry" />
        </mxCell>
        <mxCell id="24taLyYYHlg751Q2959I-10" value="gate" style="ellipse;whiteSpace=wrap;html=1;aspect=fixed;" vertex="1" parent="1">
          <mxGeometry x="200" y="300" width="40" height="40" as="geometry" />
        </mxCell>
        <mxCell id="24taLyYYHlg751Q2959I-11" value="" style="edgeStyle=orthogonalEdgeStyle;rounded=0;orthogonalLoop=1;jettySize=auto;html=1;" edge="1" parent="1" source="24taLyYYHlg751Q2959I-12" target="24taLyYYHlg751Q2959I-14">
          <mxGeometry relative="1" as="geometry" />
        </mxCell>
        <mxCell id="24taLyYYHlg751Q2959I-12" value="user input" style="rounded=0;whiteSpace=wrap;html=1;" vertex="1" parent="1">
          <mxGeometry x="160" y="240" width="120" height="40" as="geometry" />
        </mxCell>
        <mxCell id="24taLyYYHlg751Q2959I-13" value="" style="edgeStyle=orthogonalEdgeStyle;rounded=0;orthogonalLoop=1;jettySize=auto;html=1;" edge="1" parent="1" source="24taLyYYHlg751Q2959I-14" target="24taLyYYHlg751Q2959I-16">
          <mxGeometry relative="1" as="geometry" />
        </mxCell>
        <mxCell id="24taLyYYHlg751Q2959I-14" value="mlp + resnet + mlp" style="rounded=0;whiteSpace=wrap;html=1;" vertex="1" parent="1">
          <mxGeometry x="160" y="170" width="120" height="40" as="geometry" />
        </mxCell>
        <mxCell id="24taLyYYHlg751Q2959I-15" style="edgeStyle=orthogonalEdgeStyle;rounded=0;orthogonalLoop=1;jettySize=auto;html=1;exitX=0.5;exitY=0;exitDx=0;exitDy=0;entryX=0.5;entryY=1;entryDx=0;entryDy=0;" edge="1" parent="1" source="24taLyYYHlg751Q2959I-16" target="24taLyYYHlg751Q2959I-21">
          <mxGeometry relative="1" as="geometry" />
        </mxCell>
        <mxCell id="24taLyYYHlg751Q2959I-16" value="user output(128)" style="rounded=0;whiteSpace=wrap;html=1;" vertex="1" parent="1">
          <mxGeometry x="160" y="100" width="120" height="40" as="geometry" />
        </mxCell>
        <mxCell id="24taLyYYHlg751Q2959I-17" style="edgeStyle=orthogonalEdgeStyle;rounded=0;orthogonalLoop=1;jettySize=auto;html=1;exitX=0.5;exitY=0;exitDx=0;exitDy=0;entryX=0.5;entryY=1;entryDx=0;entryDy=0;" edge="1" parent="1" source="24taLyYYHlg751Q2959I-18" target="24taLyYYHlg751Q2959I-21">
          <mxGeometry relative="1" as="geometry" />
        </mxCell>
        <mxCell id="24taLyYYHlg751Q2959I-18" value="user bias" style="rounded=0;whiteSpace=wrap;html=1;" vertex="1" parent="1">
          <mxGeometry x="30" y="100" width="120" height="40" as="geometry" />
        </mxCell>
        <mxCell id="24taLyYYHlg751Q2959I-19" style="edgeStyle=orthogonalEdgeStyle;rounded=0;orthogonalLoop=1;jettySize=auto;html=1;exitX=1;exitY=0.5;exitDx=0;exitDy=0;entryX=0.5;entryY=1;entryDx=0;entryDy=0;" edge="1" parent="1" source="24taLyYYHlg751Q2959I-21" target="24taLyYYHlg751Q2959I-44">
          <mxGeometry relative="1" as="geometry" />
        </mxCell>
        <mxCell id="24taLyYYHlg751Q2959I-20" style="rounded=0;orthogonalLoop=1;jettySize=auto;html=1;entryX=0.5;entryY=1;entryDx=0;entryDy=0;" edge="1" parent="1" source="24taLyYYHlg751Q2959I-21" target="24taLyYYHlg751Q2959I-112">
          <mxGeometry relative="1" as="geometry" />
        </mxCell>
        <mxCell id="24taLyYYHlg751Q2959I-21" value="user output" style="rounded=0;whiteSpace=wrap;html=1;" vertex="1" parent="1">
          <mxGeometry x="100" y="20" width="120" height="40" as="geometry" />
        </mxCell>
        <mxCell id="24taLyYYHlg751Q2959I-22" value="user_group_unique_id?" style="ellipse;whiteSpace=wrap;html=1;" vertex="1" parent="1">
          <mxGeometry x="-80" y="260" width="150" height="60" as="geometry" />
        </mxCell>
        <mxCell id="24taLyYYHlg751Q2959I-23" style="edgeStyle=orthogonalEdgeStyle;rounded=0;orthogonalLoop=1;jettySize=auto;html=1;exitX=0.5;exitY=0;exitDx=0;exitDy=0;entryX=0.5;entryY=1;entryDx=0;entryDy=0;" edge="1" parent="1" source="24taLyYYHlg751Q2959I-24" target="24taLyYYHlg751Q2959I-28">
          <mxGeometry relative="1" as="geometry" />
        </mxCell>
        <mxCell id="24taLyYYHlg751Q2959I-24" value="item features" style="rounded=0;whiteSpace=wrap;html=1;" vertex="1" parent="1">
          <mxGeometry x="460" y="370" width="120" height="40" as="geometry" />
        </mxCell>
        <mxCell id="24taLyYYHlg751Q2959I-25" style="edgeStyle=orthogonalEdgeStyle;rounded=0;orthogonalLoop=1;jettySize=auto;html=1;exitX=0.5;exitY=0;exitDx=0;exitDy=0;" edge="1" parent="1" source="24taLyYYHlg751Q2959I-26">
          <mxGeometry relative="1" as="geometry">
            <mxPoint x="580" y="340" as="targetPoint" />
          </mxGeometry>
        </mxCell>
        <mxCell id="24taLyYYHlg751Q2959I-26" value="item bias feature" style="rounded=0;whiteSpace=wrap;html=1;" vertex="1" parent="1">
          <mxGeometry x="600" y="370" width="120" height="40" as="geometry" />
        </mxCell>
        <mxCell id="24taLyYYHlg751Q2959I-27" value="" style="edgeStyle=orthogonalEdgeStyle;rounded=0;orthogonalLoop=1;jettySize=auto;html=1;" edge="1" parent="1" source="24taLyYYHlg751Q2959I-28" target="24taLyYYHlg751Q2959I-30">
          <mxGeometry relative="1" as="geometry" />
        </mxCell>
        <mxCell id="24taLyYYHlg751Q2959I-28" value="gate" style="ellipse;whiteSpace=wrap;html=1;aspect=fixed;" vertex="1" parent="1">
          <mxGeometry x="560" y="300" width="40" height="40" as="geometry" />
        </mxCell>
        <mxCell id="24taLyYYHlg751Q2959I-29" value="" style="edgeStyle=orthogonalEdgeStyle;rounded=0;orthogonalLoop=1;jettySize=auto;html=1;" edge="1" parent="1" source="24taLyYYHlg751Q2959I-30" target="24taLyYYHlg751Q2959I-32">
          <mxGeometry relative="1" as="geometry" />
        </mxCell>
        <mxCell id="24taLyYYHlg751Q2959I-30" value="item input" style="rounded=0;whiteSpace=wrap;html=1;" vertex="1" parent="1">
          <mxGeometry x="520" y="240" width="120" height="40" as="geometry" />
        </mxCell>
        <mxCell id="24taLyYYHlg751Q2959I-31" value="" style="edgeStyle=orthogonalEdgeStyle;rounded=0;orthogonalLoop=1;jettySize=auto;html=1;" edge="1" parent="1" source="24taLyYYHlg751Q2959I-32" target="24taLyYYHlg751Q2959I-34">
          <mxGeometry relative="1" as="geometry" />
        </mxCell>
        <mxCell id="24taLyYYHlg751Q2959I-32" value="mlp + resnet + mlp" style="rounded=0;whiteSpace=wrap;html=1;" vertex="1" parent="1">
          <mxGeometry x="520" y="170" width="120" height="40" as="geometry" />
        </mxCell>
        <mxCell id="24taLyYYHlg751Q2959I-33" style="edgeStyle=orthogonalEdgeStyle;rounded=0;orthogonalLoop=1;jettySize=auto;html=1;exitX=0.5;exitY=0;exitDx=0;exitDy=0;entryX=0.5;entryY=1;entryDx=0;entryDy=0;" edge="1" parent="1" source="24taLyYYHlg751Q2959I-34" target="24taLyYYHlg751Q2959I-40">
          <mxGeometry relative="1" as="geometry" />
        </mxCell>
        <mxCell id="24taLyYYHlg751Q2959I-34" value="item output(128)" style="rounded=0;whiteSpace=wrap;html=1;" vertex="1" parent="1">
          <mxGeometry x="520" y="100" width="120" height="40" as="geometry" />
        </mxCell>
        <mxCell id="24taLyYYHlg751Q2959I-35" style="edgeStyle=orthogonalEdgeStyle;rounded=0;orthogonalLoop=1;jettySize=auto;html=1;exitX=0.5;exitY=0;exitDx=0;exitDy=0;entryX=0.5;entryY=1;entryDx=0;entryDy=0;" edge="1" parent="1" source="24taLyYYHlg751Q2959I-36" target="24taLyYYHlg751Q2959I-40">
          <mxGeometry relative="1" as="geometry" />
        </mxCell>
        <mxCell id="24taLyYYHlg751Q2959I-36" value="item bias" style="rounded=0;whiteSpace=wrap;html=1;" vertex="1" parent="1">
          <mxGeometry x="390" y="100" width="120" height="40" as="geometry" />
        </mxCell>
        <mxCell id="24taLyYYHlg751Q2959I-37" style="edgeStyle=orthogonalEdgeStyle;rounded=0;orthogonalLoop=1;jettySize=auto;html=1;exitX=0;exitY=0.5;exitDx=0;exitDy=0;" edge="1" parent="1" source="24taLyYYHlg751Q2959I-40">
          <mxGeometry relative="1" as="geometry">
            <mxPoint x="340" y="-10" as="targetPoint" />
          </mxGeometry>
        </mxCell>
        <mxCell id="24taLyYYHlg751Q2959I-38" style="rounded=0;orthogonalLoop=1;jettySize=auto;html=1;exitX=0.5;exitY=0;exitDx=0;exitDy=0;entryX=0.5;entryY=1;entryDx=0;entryDy=0;" edge="1" parent="1" source="24taLyYYHlg751Q2959I-40" target="24taLyYYHlg751Q2959I-58">
          <mxGeometry relative="1" as="geometry" />
        </mxCell>
        <mxCell id="24taLyYYHlg751Q2959I-39" style="rounded=0;orthogonalLoop=1;jettySize=auto;html=1;entryX=0.5;entryY=1;entryDx=0;entryDy=0;" edge="1" parent="1" source="24taLyYYHlg751Q2959I-40" target="24taLyYYHlg751Q2959I-112">
          <mxGeometry relative="1" as="geometry">
            <mxPoint x="150" y="-90" as="targetPoint" />
          </mxGeometry>
        </mxCell>
        <mxCell id="24taLyYYHlg751Q2959I-40" value="item output" style="rounded=0;whiteSpace=wrap;html=1;" vertex="1" parent="1">
          <mxGeometry x="460" y="20" width="120" height="40" as="geometry" />
        </mxCell>
        <mxCell id="24taLyYYHlg751Q2959I-41" style="edgeStyle=orthogonalEdgeStyle;rounded=0;orthogonalLoop=1;jettySize=auto;html=1;exitX=0.5;exitY=0;exitDx=0;exitDy=0;entryX=0.5;entryY=1;entryDx=0;entryDy=0;" edge="1" parent="1" source="24taLyYYHlg751Q2959I-42" target="24taLyYYHlg751Q2959I-18">
          <mxGeometry relative="1" as="geometry" />
        </mxCell>
        <mxCell id="24taLyYYHlg751Q2959I-42" value="uid/did" style="rounded=0;whiteSpace=wrap;html=1;" vertex="1" parent="1">
          <mxGeometry x="30" y="170" width="120" height="40" as="geometry" />
        </mxCell>
        <mxCell id="24taLyYYHlg751Q2959I-43" style="edgeStyle=orthogonalEdgeStyle;rounded=0;orthogonalLoop=1;jettySize=auto;html=1;entryX=0.5;entryY=1;entryDx=0;entryDy=0;" edge="1" parent="1" source="24taLyYYHlg751Q2959I-44" target="24taLyYYHlg751Q2959I-46">
          <mxGeometry relative="1" as="geometry" />
        </mxCell>
        <mxCell id="24taLyYYHlg751Q2959I-44" value="X" style="ellipse;whiteSpace=wrap;html=1;aspect=fixed;" vertex="1" parent="1">
          <mxGeometry x="320" y="-50" width="40" height="40" as="geometry" />
        </mxCell>
        <mxCell id="24taLyYYHlg751Q2959I-45" value="" style="edgeStyle=orthogonalEdgeStyle;rounded=0;orthogonalLoop=1;jettySize=auto;html=1;" edge="1" parent="1" source="24taLyYYHlg751Q2959I-46" target="24taLyYYHlg751Q2959I-47">
          <mxGeometry relative="1" as="geometry" />
        </mxCell>
        <mxCell id="24taLyYYHlg751Q2959I-46" value="sigmoid" style="rounded=0;whiteSpace=wrap;html=1;" vertex="1" parent="1">
          <mxGeometry x="280" y="-110" width="120" height="30" as="geometry" />
        </mxCell>
        <mxCell id="24taLyYYHlg751Q2959I-47" value="tower_logits_dict" style="rounded=0;whiteSpace=wrap;html=1;" vertex="1" parent="1">
          <mxGeometry x="280" y="-170" width="120" height="30" as="geometry" />
        </mxCell>
        <mxCell id="24taLyYYHlg751Q2959I-48" value="fm_logits_dict" style="rounded=0;whiteSpace=wrap;html=1;" vertex="1" parent="1">
          <mxGeometry x="-170" y="-170" width="120" height="30" as="geometry" />
        </mxCell>
        <mxCell id="24taLyYYHlg751Q2959I-49" value="" style="edgeStyle=orthogonalEdgeStyle;rounded=0;orthogonalLoop=1;jettySize=auto;html=1;" edge="1" parent="1" source="24taLyYYHlg751Q2959I-50" target="24taLyYYHlg751Q2959I-48">
          <mxGeometry relative="1" as="geometry" />
        </mxCell>
        <mxCell id="24taLyYYHlg751Q2959I-50" value="FM" style="rounded=0;whiteSpace=wrap;html=1;" vertex="1" parent="1">
          <mxGeometry x="-170" y="-110" width="120" height="30" as="geometry" />
        </mxCell>
        <mxCell id="24taLyYYHlg751Q2959I-51" value="" style="edgeStyle=orthogonalEdgeStyle;rounded=0;orthogonalLoop=1;jettySize=auto;html=1;" edge="1" parent="1" source="24taLyYYHlg751Q2959I-52" target="24taLyYYHlg751Q2959I-50">
          <mxGeometry relative="1" as="geometry" />
        </mxCell>
        <mxCell id="24taLyYYHlg751Q2959I-52" value="fm features" style="rounded=0;whiteSpace=wrap;html=1;" vertex="1" parent="1">
          <mxGeometry x="-170" y="-50" width="120" height="30" as="geometry" />
        </mxCell>
        <mxCell id="24taLyYYHlg751Q2959I-53" style="edgeStyle=orthogonalEdgeStyle;rounded=0;orthogonalLoop=1;jettySize=auto;html=1;" edge="1" parent="1" source="24taLyYYHlg751Q2959I-54">
          <mxGeometry relative="1" as="geometry">
            <mxPoint x="-110" y="-140" as="targetPoint" />
            <Array as="points">
              <mxPoint x="-230" y="-130" />
              <mxPoint x="-109" y="-130" />
            </Array>
          </mxGeometry>
        </mxCell>
        <mxCell id="24taLyYYHlg751Q2959I-54" value="user bias" style="rounded=0;whiteSpace=wrap;html=1;" vertex="1" parent="1">
          <mxGeometry x="-270" y="-110" width="80" height="30" as="geometry" />
        </mxCell>
        <mxCell id="24taLyYYHlg751Q2959I-55" style="edgeStyle=orthogonalEdgeStyle;rounded=0;orthogonalLoop=1;jettySize=auto;html=1;entryX=0.5;entryY=1;entryDx=0;entryDy=0;" edge="1" parent="1" source="24taLyYYHlg751Q2959I-56" target="24taLyYYHlg751Q2959I-48">
          <mxGeometry relative="1" as="geometry">
            <Array as="points">
              <mxPoint x="10" y="-130" />
              <mxPoint x="-110" y="-130" />
            </Array>
          </mxGeometry>
        </mxCell>
        <mxCell id="24taLyYYHlg751Q2959I-56" value="item bias" style="rounded=0;whiteSpace=wrap;html=1;" vertex="1" parent="1">
          <mxGeometry x="-30" y="-110" width="80" height="30" as="geometry" />
        </mxCell>
        <mxCell id="24taLyYYHlg751Q2959I-57" style="edgeStyle=orthogonalEdgeStyle;rounded=0;orthogonalLoop=1;jettySize=auto;html=1;exitX=0.5;exitY=0;exitDx=0;exitDy=0;" edge="1" parent="1" source="24taLyYYHlg751Q2959I-58" target="24taLyYYHlg751Q2959I-60">
          <mxGeometry relative="1" as="geometry" />
        </mxCell>
        <mxCell id="24taLyYYHlg751Q2959I-58" value="user * item" style="rounded=0;whiteSpace=wrap;html=1;" vertex="1" parent="1">
          <mxGeometry x="480" y="-110" width="120" height="40" as="geometry" />
        </mxCell>
        <mxCell id="24taLyYYHlg751Q2959I-59" style="rounded=0;orthogonalLoop=1;jettySize=auto;html=1;exitX=0.5;exitY=0;exitDx=0;exitDy=0;entryX=0.5;entryY=1;entryDx=0;entryDy=0;" edge="1" parent="1" source="24taLyYYHlg751Q2959I-21" target="24taLyYYHlg751Q2959I-58">
          <mxGeometry relative="1" as="geometry" />
        </mxCell>
        <mxCell id="24taLyYYHlg751Q2959I-60" value="MLP" style="rounded=0;whiteSpace=wrap;html=1;" vertex="1" parent="1">
          <mxGeometry x="480" y="-170" width="120" height="40" as="geometry" />
        </mxCell>
        <mxCell id="24taLyYYHlg751Q2959I-61" style="edgeStyle=orthogonalEdgeStyle;rounded=0;orthogonalLoop=1;jettySize=auto;html=1;entryX=0.5;entryY=1;entryDx=0;entryDy=0;" edge="1" parent="1" source="24taLyYYHlg751Q2959I-63" target="24taLyYYHlg751Q2959I-79">
          <mxGeometry relative="1" as="geometry" />
        </mxCell>
        <mxCell id="24taLyYYHlg751Q2959I-62" style="edgeStyle=orthogonalEdgeStyle;rounded=0;orthogonalLoop=1;jettySize=auto;html=1;exitX=0.5;exitY=0;exitDx=0;exitDy=0;entryX=0.5;entryY=1;entryDx=0;entryDy=0;" edge="1" parent="1" source="24taLyYYHlg751Q2959I-63" target="24taLyYYHlg751Q2959I-82">
          <mxGeometry relative="1" as="geometry" />
        </mxCell>
        <mxCell id="24taLyYYHlg751Q2959I-63" value="dot_product_attention_layer_v2&lt;div&gt;&lt;br&gt;&lt;/div&gt;&lt;div&gt;&lt;br&gt;&lt;/div&gt;&lt;div&gt;&lt;br&gt;&lt;/div&gt;&lt;div&gt;&lt;br&gt;&lt;/div&gt;&lt;div&gt;&lt;br&gt;&lt;/div&gt;&lt;div&gt;&lt;br&gt;&lt;/div&gt;&lt;div&gt;&lt;br&gt;&lt;/div&gt;&lt;div&gt;&lt;br&gt;&lt;/div&gt;&lt;div&gt;&lt;br&gt;&lt;/div&gt;&lt;div&gt;&lt;br&gt;&lt;/div&gt;&lt;div&gt;&lt;br&gt;&lt;/div&gt;&lt;div&gt;&lt;br&gt;&lt;/div&gt;&lt;div&gt;&lt;br&gt;&lt;/div&gt;&lt;div&gt;&lt;br&gt;&lt;/div&gt;&lt;div&gt;&lt;br&gt;&lt;/div&gt;&lt;div&gt;&lt;br&gt;&lt;/div&gt;" style="rounded=0;whiteSpace=wrap;html=1;align=left;" vertex="1" parent="1">
          <mxGeometry x="740" y="50" width="440" height="270" as="geometry" />
        </mxCell>
        <mxCell id="24taLyYYHlg751Q2959I-64" style="edgeStyle=orthogonalEdgeStyle;rounded=0;orthogonalLoop=1;jettySize=auto;html=1;entryX=1;entryY=0.5;entryDx=0;entryDy=0;" edge="1" parent="1" source="24taLyYYHlg751Q2959I-66" target="24taLyYYHlg751Q2959I-76">
          <mxGeometry relative="1" as="geometry" />
        </mxCell>
        <mxCell id="24taLyYYHlg751Q2959I-65" style="rounded=0;orthogonalLoop=1;jettySize=auto;html=1;exitX=1;exitY=0;exitDx=0;exitDy=0;entryX=0;entryY=0.5;entryDx=0;entryDy=0;" edge="1" parent="1" source="24taLyYYHlg751Q2959I-66" target="24taLyYYHlg751Q2959I-83">
          <mxGeometry relative="1" as="geometry" />
        </mxCell>
        <mxCell id="24taLyYYHlg751Q2959I-66" value="query" style="rounded=0;whiteSpace=wrap;html=1;" vertex="1" parent="1">
          <mxGeometry x="1000" y="120" width="70" height="40" as="geometry" />
        </mxCell>
        <mxCell id="24taLyYYHlg751Q2959I-67" style="edgeStyle=orthogonalEdgeStyle;rounded=0;orthogonalLoop=1;jettySize=auto;html=1;entryX=1;entryY=0.5;entryDx=0;entryDy=0;" edge="1" parent="1" source="24taLyYYHlg751Q2959I-68" target="24taLyYYHlg751Q2959I-73">
          <mxGeometry relative="1" as="geometry" />
        </mxCell>
        <mxCell id="24taLyYYHlg751Q2959I-68" value="kgnn1,kgnn2,&lt;div&gt;kgnn_marm1,kgnn_marm2&lt;/div&gt;" style="rounded=0;whiteSpace=wrap;html=1;" vertex="1" parent="1">
          <mxGeometry x="1020" y="220" width="150" height="40" as="geometry" />
        </mxCell>
        <mxCell id="24taLyYYHlg751Q2959I-69" style="edgeStyle=orthogonalEdgeStyle;rounded=0;orthogonalLoop=1;jettySize=auto;html=1;entryX=0;entryY=0.5;entryDx=0;entryDy=0;" edge="1" parent="1" source="24taLyYYHlg751Q2959I-71" target="24taLyYYHlg751Q2959I-68">
          <mxGeometry relative="1" as="geometry" />
        </mxCell>
        <mxCell id="24taLyYYHlg751Q2959I-70" style="edgeStyle=orthogonalEdgeStyle;rounded=0;orthogonalLoop=1;jettySize=auto;html=1;entryX=0.5;entryY=1;entryDx=0;entryDy=0;" edge="1" parent="1" source="24taLyYYHlg751Q2959I-73" target="24taLyYYHlg751Q2959I-66">
          <mxGeometry relative="1" as="geometry" />
        </mxCell>
        <mxCell id="24taLyYYHlg751Q2959I-71" value="[pid, aid] + tag" style="rounded=0;whiteSpace=wrap;html=1;" vertex="1" parent="1">
          <mxGeometry x="940" y="220" width="70" height="40" as="geometry" />
        </mxCell>
        <mxCell id="24taLyYYHlg751Q2959I-72" value="" style="edgeStyle=orthogonalEdgeStyle;rounded=0;orthogonalLoop=1;jettySize=auto;html=1;entryX=0;entryY=0.5;entryDx=0;entryDy=0;" edge="1" parent="1" source="24taLyYYHlg751Q2959I-71" target="24taLyYYHlg751Q2959I-73">
          <mxGeometry relative="1" as="geometry">
            <mxPoint x="975" y="220" as="sourcePoint" />
            <mxPoint x="1035" y="160" as="targetPoint" />
            <Array as="points">
              <mxPoint x="980" y="190" />
            </Array>
          </mxGeometry>
        </mxCell>
        <mxCell id="24taLyYYHlg751Q2959I-73" value="+" style="ellipse;whiteSpace=wrap;html=1;aspect=fixed;" vertex="1" parent="1">
          <mxGeometry x="1020" y="175" width="30" height="30" as="geometry" />
        </mxCell>
        <mxCell id="24taLyYYHlg751Q2959I-74" style="edgeStyle=orthogonalEdgeStyle;rounded=0;orthogonalLoop=1;jettySize=auto;html=1;exitX=0.5;exitY=0;exitDx=0;exitDy=0;entryX=0.5;entryY=1;entryDx=0;entryDy=0;" edge="1" parent="1" source="24taLyYYHlg751Q2959I-75" target="24taLyYYHlg751Q2959I-76">
          <mxGeometry relative="1" as="geometry" />
        </mxCell>
        <mxCell id="24taLyYYHlg751Q2959I-75" value="key: pid, aid, tags, time_diff, play_time(more?做gate？)" style="rounded=0;whiteSpace=wrap;html=1;fillColor=#ffe6cc;strokeColor=#d79b00;" vertex="1" parent="1">
          <mxGeometry x="770" y="190" width="150" height="75" as="geometry" />
        </mxCell>
        <mxCell id="24taLyYYHlg751Q2959I-76" value="Target Attention: qQ*K&#39;*k*v* V" style="rounded=0;whiteSpace=wrap;html=1;" vertex="1" parent="1">
          <mxGeometry x="770" y="120" width="150" height="40" as="geometry" />
        </mxCell>
        <mxCell id="24taLyYYHlg751Q2959I-77" style="rounded=0;orthogonalLoop=1;jettySize=auto;html=1;exitX=1;exitY=0.5;exitDx=0;exitDy=0;entryX=0;entryY=0.5;entryDx=0;entryDy=0;" edge="1" parent="1" source="24taLyYYHlg751Q2959I-79" target="24taLyYYHlg751Q2959I-83">
          <mxGeometry relative="1" as="geometry">
            <mxPoint x="1240" y="-30" as="targetPoint" />
          </mxGeometry>
        </mxCell>
        <mxCell id="24taLyYYHlg751Q2959I-78" style="rounded=0;orthogonalLoop=1;jettySize=auto;html=1;exitX=0.5;exitY=0;exitDx=0;exitDy=0;entryX=0.5;entryY=1;entryDx=0;entryDy=0;" edge="1" parent="1" source="24taLyYYHlg751Q2959I-79" target="24taLyYYHlg751Q2959I-106">
          <mxGeometry relative="1" as="geometry" />
        </mxCell>
        <mxCell id="24taLyYYHlg751Q2959I-79" value="SIM" style="rounded=0;whiteSpace=wrap;html=1;" vertex="1" parent="1">
          <mxGeometry x="780" y="-115" width="120" height="40" as="geometry" />
        </mxCell>
        <mxCell id="24taLyYYHlg751Q2959I-80" style="rounded=0;orthogonalLoop=1;jettySize=auto;html=1;exitX=1;exitY=0.5;exitDx=0;exitDy=0;entryX=0;entryY=0.5;entryDx=0;entryDy=0;" edge="1" parent="1" source="24taLyYYHlg751Q2959I-82" target="24taLyYYHlg751Q2959I-83">
          <mxGeometry relative="1" as="geometry" />
        </mxCell>
        <mxCell id="24taLyYYHlg751Q2959I-81" style="rounded=0;orthogonalLoop=1;jettySize=auto;html=1;exitX=0.5;exitY=0;exitDx=0;exitDy=0;entryX=0.5;entryY=1;entryDx=0;entryDy=0;" edge="1" parent="1" source="24taLyYYHlg751Q2959I-82" target="24taLyYYHlg751Q2959I-106">
          <mxGeometry relative="1" as="geometry" />
        </mxCell>
        <mxCell id="24taLyYYHlg751Q2959I-82" value="Million-ACT" style="rounded=0;whiteSpace=wrap;html=1;" vertex="1" parent="1">
          <mxGeometry x="980" y="-115" width="120" height="40" as="geometry" />
        </mxCell>
        <mxCell id="24taLyYYHlg751Q2959I-83" value="concat: new query" style="rounded=0;whiteSpace=wrap;html=1;" vertex="1" parent="1">
          <mxGeometry x="1250" y="72.5" width="120" height="35" as="geometry" />
        </mxCell>
        <mxCell id="24taLyYYHlg751Q2959I-84" style="edgeStyle=orthogonalEdgeStyle;rounded=0;orthogonalLoop=1;jettySize=auto;html=1;entryX=0.5;entryY=1;entryDx=0;entryDy=0;" edge="1" parent="1" source="24taLyYYHlg751Q2959I-85" target="24taLyYYHlg751Q2959I-83">
          <mxGeometry relative="1" as="geometry" />
        </mxCell>
        <mxCell id="24taLyYYHlg751Q2959I-85" value="u_long_marm" style="rounded=0;whiteSpace=wrap;html=1;" vertex="1" parent="1">
          <mxGeometry x="1241" y="200" width="79" height="60" as="geometry" />
        </mxCell>
        <mxCell id="24taLyYYHlg751Q2959I-86" style="edgeStyle=orthogonalEdgeStyle;rounded=0;orthogonalLoop=1;jettySize=auto;html=1;entryX=0.5;entryY=1;entryDx=0;entryDy=0;" edge="1" parent="1" source="24taLyYYHlg751Q2959I-87" target="24taLyYYHlg751Q2959I-83">
          <mxGeometry relative="1" as="geometry" />
        </mxCell>
        <mxCell id="24taLyYYHlg751Q2959I-87" value="tgn_pids" style="rounded=0;whiteSpace=wrap;html=1;" vertex="1" parent="1">
          <mxGeometry x="1330" y="200" width="100" height="60" as="geometry" />
        </mxCell>
        <mxCell id="24taLyYYHlg751Q2959I-88" value="" style="edgeStyle=orthogonalEdgeStyle;rounded=0;orthogonalLoop=1;jettySize=auto;html=1;" edge="1" parent="1" source="24taLyYYHlg751Q2959I-90" target="24taLyYYHlg751Q2959I-94">
          <mxGeometry relative="1" as="geometry" />
        </mxCell>
        <mxCell id="24taLyYYHlg751Q2959I-89" style="rounded=0;orthogonalLoop=1;jettySize=auto;html=1;exitX=0.5;exitY=0;exitDx=0;exitDy=0;entryX=0.5;entryY=1;entryDx=0;entryDy=0;" edge="1" parent="1" source="24taLyYYHlg751Q2959I-90" target="24taLyYYHlg751Q2959I-106">
          <mxGeometry relative="1" as="geometry" />
        </mxCell>
        <mxCell id="24taLyYYHlg751Q2959I-90" value="long_marm_output" style="rounded=0;whiteSpace=wrap;html=1;" vertex="1" parent="1">
          <mxGeometry x="1230" y="-55" width="120" height="40" as="geometry" />
        </mxCell>
        <mxCell id="24taLyYYHlg751Q2959I-91" style="rounded=0;orthogonalLoop=1;jettySize=auto;html=1;exitX=0.5;exitY=0;exitDx=0;exitDy=0;entryX=0.5;entryY=1;entryDx=0;entryDy=0;" edge="1" parent="1" source="24taLyYYHlg751Q2959I-92" target="24taLyYYHlg751Q2959I-106">
          <mxGeometry relative="1" as="geometry" />
        </mxCell>
        <mxCell id="24taLyYYHlg751Q2959I-92" value="tgn_pids_output" style="rounded=0;whiteSpace=wrap;html=1;" vertex="1" parent="1">
          <mxGeometry x="1400" y="-55" width="120" height="40" as="geometry" />
        </mxCell>
        <mxCell id="24taLyYYHlg751Q2959I-93" value="" style="edgeStyle=orthogonalEdgeStyle;rounded=0;orthogonalLoop=1;jettySize=auto;html=1;" edge="1" parent="1" source="24taLyYYHlg751Q2959I-94" target="24taLyYYHlg751Q2959I-95">
          <mxGeometry relative="1" as="geometry" />
        </mxCell>
        <mxCell id="24taLyYYHlg751Q2959I-94" value="mlp" style="rounded=0;whiteSpace=wrap;html=1;" vertex="1" parent="1">
          <mxGeometry x="1230" y="-140" width="120" height="40" as="geometry" />
        </mxCell>
        <mxCell id="24taLyYYHlg751Q2959I-95" value="long_marm_evr_logit" style="rounded=0;whiteSpace=wrap;html=1;" vertex="1" parent="1">
          <mxGeometry x="1230" y="-210" width="120" height="40" as="geometry" />
        </mxCell>
        <mxCell id="24taLyYYHlg751Q2959I-96" style="edgeStyle=orthogonalEdgeStyle;rounded=0;orthogonalLoop=1;jettySize=auto;html=1;entryX=0.5;entryY=1;entryDx=0;entryDy=0;" edge="1" parent="1" source="24taLyYYHlg751Q2959I-97" target="24taLyYYHlg751Q2959I-101">
          <mxGeometry relative="1" as="geometry" />
        </mxCell>
        <mxCell id="24taLyYYHlg751Q2959I-97" value="long_million_target" style="rounded=0;whiteSpace=wrap;html=1;" vertex="1" parent="1">
          <mxGeometry x="1460" y="200" width="85" height="60" as="geometry" />
        </mxCell>
        <mxCell id="24taLyYYHlg751Q2959I-98" style="edgeStyle=orthogonalEdgeStyle;rounded=0;orthogonalLoop=1;jettySize=auto;html=1;entryX=0.5;entryY=1;entryDx=0;entryDy=0;" edge="1" parent="1" source="24taLyYYHlg751Q2959I-100" target="24taLyYYHlg751Q2959I-103">
          <mxGeometry relative="1" as="geometry" />
        </mxCell>
        <mxCell id="24taLyYYHlg751Q2959I-99" style="rounded=0;orthogonalLoop=1;jettySize=auto;html=1;exitX=0.5;exitY=0;exitDx=0;exitDy=0;" edge="1" parent="1" source="24taLyYYHlg751Q2959I-100">
          <mxGeometry relative="1" as="geometry">
            <mxPoint x="810" y="-360" as="targetPoint" />
          </mxGeometry>
        </mxCell>
        <mxCell id="24taLyYYHlg751Q2959I-100" value="long_million_output" style="rounded=0;whiteSpace=wrap;html=1;" vertex="1" parent="1">
          <mxGeometry x="1570" y="-55" width="120" height="40" as="geometry" />
        </mxCell>
        <mxCell id="24taLyYYHlg751Q2959I-101" value="esu_million_query" style="rounded=0;whiteSpace=wrap;html=1;fillColor=#f8cecc;strokeColor=#b85450;" vertex="1" parent="1">
          <mxGeometry x="1425" y="72.5" width="120" height="35" as="geometry" />
        </mxCell>
        <mxCell id="24taLyYYHlg751Q2959I-102" value="" style="edgeStyle=orthogonalEdgeStyle;rounded=0;orthogonalLoop=1;jettySize=auto;html=1;" edge="1" parent="1" source="24taLyYYHlg751Q2959I-103" target="24taLyYYHlg751Q2959I-104">
          <mxGeometry relative="1" as="geometry" />
        </mxCell>
        <mxCell id="24taLyYYHlg751Q2959I-103" value="mlp" style="rounded=0;whiteSpace=wrap;html=1;" vertex="1" parent="1">
          <mxGeometry x="1570" y="-140" width="120" height="40" as="geometry" />
        </mxCell>
        <mxCell id="24taLyYYHlg751Q2959I-104" value="long_million_evr_logit" style="rounded=0;whiteSpace=wrap;html=1;" vertex="1" parent="1">
          <mxGeometry x="1570" y="-210" width="120" height="40" as="geometry" />
        </mxCell>
        <mxCell id="24taLyYYHlg751Q2959I-105" style="edgeStyle=orthogonalEdgeStyle;rounded=0;orthogonalLoop=1;jettySize=auto;html=1;" edge="1" parent="1" source="24taLyYYHlg751Q2959I-106" target="24taLyYYHlg751Q2959I-116">
          <mxGeometry relative="1" as="geometry" />
        </mxCell>
        <mxCell id="24taLyYYHlg751Q2959I-106" value="MultiHeadSelfAttentionBlock" style="rounded=0;whiteSpace=wrap;html=1;" vertex="1" parent="1">
          <mxGeometry x="590" y="-480" width="430" height="120" as="geometry" />
        </mxCell>
        <mxCell id="24taLyYYHlg751Q2959I-107" style="rounded=0;orthogonalLoop=1;jettySize=auto;html=1;exitX=0.5;exitY=0;exitDx=0;exitDy=0;entryX=0.5;entryY=1;entryDx=0;entryDy=0;" edge="1" parent="1" source="24taLyYYHlg751Q2959I-108" target="24taLyYYHlg751Q2959I-106">
          <mxGeometry relative="1" as="geometry" />
        </mxCell>
        <mxCell id="24taLyYYHlg751Q2959I-108" value="CAN" style="rounded=0;whiteSpace=wrap;html=1;" vertex="1" parent="1">
          <mxGeometry x="630" y="-115" width="120" height="40" as="geometry" />
        </mxCell>
        <mxCell id="24taLyYYHlg751Q2959I-109" style="rounded=0;orthogonalLoop=1;jettySize=auto;html=1;exitX=0.5;exitY=0;exitDx=0;exitDy=0;entryX=0.5;entryY=1;entryDx=0;entryDy=0;" edge="1" parent="1" source="24taLyYYHlg751Q2959I-110" target="24taLyYYHlg751Q2959I-106">
          <mxGeometry relative="1" as="geometry" />
        </mxCell>
        <mxCell id="24taLyYYHlg751Q2959I-110" value="short_dense_features&lt;br&gt;author/mmu..." style="rounded=0;whiteSpace=wrap;html=1;fillColor=#f8cecc;strokeColor=#b85450;" vertex="1" parent="1">
          <mxGeometry x="-430" y="-140" width="120" height="60" as="geometry" />
        </mxCell>
        <mxCell id="24taLyYYHlg751Q2959I-111" style="rounded=0;orthogonalLoop=1;jettySize=auto;html=1;entryX=0.5;entryY=1;entryDx=0;entryDy=0;exitX=0.5;exitY=0;exitDx=0;exitDy=0;" edge="1" parent="1" source="24taLyYYHlg751Q2959I-112" target="24taLyYYHlg751Q2959I-106">
          <mxGeometry relative="1" as="geometry" />
        </mxCell>
        <mxCell id="24taLyYYHlg751Q2959I-112" value="share_fc_user, share_fc_photo" style="rounded=0;whiteSpace=wrap;html=1;fillColor=#fff2cc;strokeColor=#d6b656;" vertex="1" parent="1">
          <mxGeometry x="20" y="-190" width="110" height="60" as="geometry" />
        </mxCell>
        <mxCell id="24taLyYYHlg751Q2959I-113" style="rounded=0;orthogonalLoop=1;jettySize=auto;html=1;entryX=0.5;entryY=1;entryDx=0;entryDy=0;exitX=0.5;exitY=0;exitDx=0;exitDy=0;" edge="1" parent="1" source="24taLyYYHlg751Q2959I-115" target="24taLyYYHlg751Q2959I-106">
          <mxGeometry relative="1" as="geometry" />
        </mxCell>
        <mxCell id="24taLyYYHlg751Q2959I-114" style="edgeStyle=orthogonalEdgeStyle;rounded=0;orthogonalLoop=1;jettySize=auto;html=1;entryX=0.5;entryY=1;entryDx=0;entryDy=0;" edge="1" parent="1" source="24taLyYYHlg751Q2959I-115" target="24taLyYYHlg751Q2959I-116">
          <mxGeometry relative="1" as="geometry" />
        </mxCell>
        <mxCell id="24taLyYYHlg751Q2959I-115" value="&lt;div&gt;label_share_features&lt;/div&gt;" style="rounded=0;whiteSpace=wrap;html=1;fillColor=#fff2cc;strokeColor=#d6b656;" vertex="1" parent="1">
          <mxGeometry x="140" y="-190" width="120" height="60" as="geometry" />
        </mxCell>
        <mxCell id="24taLyYYHlg751Q2959I-116" value="resnet" style="ellipse;whiteSpace=wrap;html=1;aspect=fixed;" vertex="1" parent="1">
          <mxGeometry x="160" y="-460" width="80" height="80" as="geometry" />
        </mxCell>
        <mxCell id="24taLyYYHlg751Q2959I-117" value="labels" style="rounded=0;whiteSpace=wrap;html=1;" vertex="1" parent="1">
          <mxGeometry x="140" y="-610" width="120" height="60" as="geometry" />
        </mxCell>
        <mxCell id="24taLyYYHlg751Q2959I-118" style="edgeStyle=orthogonalEdgeStyle;rounded=0;orthogonalLoop=1;jettySize=auto;html=1;entryX=0.5;entryY=1;entryDx=0;entryDy=0;" edge="1" parent="1" source="24taLyYYHlg751Q2959I-116" target="24taLyYYHlg751Q2959I-117">
          <mxGeometry relative="1" as="geometry" />
        </mxCell>
      </root>
    </mxGraphModel>
  </diagram>
</mxfile>
